<?xml version="1.0" encoding="utf-8"?>
<!-- Generator: Adobe Illustrator 23.0.3, SVG Export Plug-In . SVG Version: 6.00 Build 0)  -->
<svg version="1.1" id="Layer_1" xmlns="http://www.w3.org/2000/svg" xmlns:xlink="http://www.w3.org/1999/xlink" x="0px" y="0px" viewBox="0 0 1000 1000" style="enable-background:new 0 0 1000 1000;" xml:space="preserve">
<g>
	<g>
		<path d="M723,861.8c18.1-1.4,36.7-17,38.6-34.7c2.8-24.8,15.2-43.6,33.1-59.5c11.7-10.4,23.7-20.6,35.9-30.4
			c4.2-3.4,9.4-5.5,17.7-10.3c-0.8,10.9-0.4,18.4-2.1,25.4c-4.6,19.3-8.5,39-15.4,57.5c-7.8,20.9-24.4,33.1-46.4,38.2
			c-3.9,0.9-8.2,5.4-10,9.4c-6,13.4-9.9,27.7-16.4,40.8c-8.8,18-23.1,29.9-44,32.1c-3.2,0.3-6.5,1.6-9.2,3.3
			c-56.1,36.1-118.7,43.9-183.3,41.2c-48.9-2.1-97.5-7.6-146.6-2.1c-15.7,1.8-33.6,4.9-46.3-11.1c-1.1-1.4-7,0.1-10.1,1.4
			c-51.8,21.5-100.3,12.5-146.9-15.7c-11-6.7-11.2-16.1-8.8-27.3c11-51.1,32-98.2,57.2-143.7c25.5-46.1,52.2-92,62.4-144.5
			c4.5-23.1,5.1-47,7-70.6c1-13.2-1.4-27.2,1.8-39.7c4.4-17.1-2.1-27.8-13.5-38.6c-11.4-10.7-21.5-22.8-32.4-34.1
			c-32.8-34.1-43-74.5-31.2-119.7c5.3-20.2,2.7-35.8-11.9-51.5c-32.5-35-31.5-78.2-28.5-122.3c1.6-24.9-1.5-50-2.9-75.1
			c-0.5-8.5-5.4-11.7-14.2-12C139,67.6,130.2,57.5,130.1,40c-0.1-18,10.5-29.9,28.6-30.5c27.1-1,49.1,11,66.6,30.4
			c14.2,15.8,26.2,33.7,39.3,50.6c8.4,10.9,16.7,21.9,25.7,32.3c21.4,24.9,46.9,31.1,79.4,22.6c53.7-14.2,107.1-9.4,156,18.2
			c65.1,36.7,95.8,95.4,100.6,168.4c2.2,34.7-12.3,64.9-31,93c-5.7,8.5-5.8,13.6,1.4,21.6c42.9,47.6,47.1,102.3,12.3,156.8
			c-4.9,7.7-5.7,14-0.6,20.6c11.3,14.6,22.5,29.4,34.9,42.9c10.6,11.5,22.8,21.5,34.7,31.8c30.3,26.3,43.9,60.1,45,99.5
			C723.5,819,723,839.9,723,861.8z M336.3,402.2c1.9,0.7,3.8,1.3,5.6,2c-2.4,9.8-4.1,19.8-7.3,29.4c-15.1,45.1-23,91-16.7,138.7
			c6.7,51.5,37.4,83.6,88,89.5c20.7,2.4,41.7,3.6,62.6,3.3c50.5-0.5,92.1-20.3,123.4-60.4c30.9-39.6,36.7-87.1,8.8-125.6
			c-24.4-33.6-54.7-62.9-83.2-93.4c-6.3-6.7-16-10.2-24.1-15.2c40.3-1.4,57.5,32.2,83.5,54.1c3.2-4.5,5.9-8.2,8.6-12.1
			c49.9-72.6,18.9-150.8-22.1-193.1c-51.3-53-116.3-62.8-186.4-58.6c-30.4,1.8-46.2,18.2-57.9,42.8c-2.9,6.1-6.1,12-9.1,17.9
			c-1.8-0.7-3.6-1.5-5.4-2.2c6.3-18.2,12.6-36.4,19.7-57c-10.6-2.5-21.2-8-30.7-6.5c-10.2,1.6-19.3,9.8-28.9,15.2
			c-1.2-1.2-2.4-2.4-3.5-3.6c7.9-9,15.7-18,22.6-25.8c-5.5-26.7-25.8-8.2-43.1-12.7c6.8-5.5,11.3-8,14.1-11.7
			c2-2.7,3.7-8.5,2.2-10.4c-16.7-21.8-32.3-45-52-63.8c-10.7-10.1-28.4-13.7-43.6-17.6c-4.3-1.1-13.7,6.3-15.9,11.7
			c-1.9,4.6,3.2,12.1,5.2,18.3c1.3,0.1,2.7,0.1,4,0.2c6.9-12.8,13.9-9,19.1-0.8c4.5,7.1,9.2,15.2,10.1,23.3
			c3,26.7,6.9,53.8,5.8,80.5c-1.8,44.8,5.1,86,35,121.2c8.5,10,10.1,20.7,6.8,34.2c-14.9,61.2,16,132.6,69.4,162.4
			C314.1,452.3,318,423.6,336.3,402.2z M590.8,628.5c-9.1,6.7-16.4,12-23.6,17.4c-26.2,19.9-55.7,31-88.6,30.2
			c-29.9-0.7-59.7-2.8-89.5-5.3c-35.8-3.1-68.7-12.3-86.3-50c-2.1,3.6-3.5,5-3.8,6.7c-9.1,47.2-29.8,89.9-52.5,131.7
			c-24.9,45.9-51.1,91.3-63.2,142.8c-1.2,5.1-0.7,12.9,2.4,16.4c25.7,28.6,94.1,41.6,130.6,25.3c-0.6-1.7-1-3.6-1.9-5.1
			c-24.4-39.4-37.8-83.4-45-128.2c-9.7-59.6-4.1-80.4,57.6-101.8c1.3-0.5,2.8-0.6,4.2-1c49.7-11.7,99-6.1,145.8,10.7
			c27.1,9.7,49.6,11.9,74.5-3.1c9.4-5.7,22.4-5.4,34.8-8c-14.5,14-27,26.1-39.4,38.1c1.4,1.4,2.8,2.7,4.2,4.1
			c3.1,4.5,6.2,9,9.3,13.5c-0.9,1.4-1.8,2.8-2.6,4.3c-10.6-4.3-21.4-8.1-31.6-13.1c-58.4-28.7-119.1-43.9-184.6-35.1
			c-29,3.9-40.4,13.8-43.6,43.2c-7.4,68.3,12.1,129.4,51.8,184.9c6.9,9.7,15.1,11.8,26.7,11.6c37.5-0.7,75,0.9,112.5,0.1
			c38.8-0.8,78-0.4,116.3-5.9c55.8-8.1,88.9-40.2,92.3-87.7c2.3-31.5-0.1-63.6-2.3-95.2c-1.3-18.9-10.4-35.8-24.7-48.5
			C640.2,694.4,611.6,666.1,590.8,628.5z"></path>
		<path d="M527.9,482.4c-9.2,8.9-19,8.3-25.9,3.3c-10.4-7.6-20.5-16.9-27.6-27.6c-10.7-16.1-19.2-33.8-27.7-51.3
			c-2.1-4.3-0.6-10.4-0.8-15.6c5.7-0.2,12.8-2.6,17-0.2c25.9,14.8,53,28.6,76.3,46.9c38.2,29.9,59.6,69.8,55.7,120
			c-1.5,19.3-12.2,33.8-31.6,45.9c1.8-5.7,2.1-8.5,3.4-10.7c18-29.6,15.6-60.1,2-90c-18.6-40.9-51.2-67.3-92.2-84.8
			C475.8,449.3,495.6,474.6,527.9,482.4z"></path>
		<path d="M309.6,304.5c3-3,7.4-10.1,13.4-12.3c6.9-2.5,19.1,11.9,16.5,20.6c-2.1,6.7-9.5,16.2-15.1,16.6
			C312.6,330.3,310.8,319,309.6,304.5z"></path>
	</g>
</g>
</svg>
