<?xml version="1.0" standalone="no"?>
<!DOCTYPE svg PUBLIC "-//W3C//DTD SVG 20010904//EN"
 "http://www.w3.org/TR/2001/REC-SVG-20010904/DTD/svg10.dtd">
<svg version="1.0" xmlns="http://www.w3.org/2000/svg" width="450.000000pt" height="360.000000pt" viewBox="0 0 450.000000 360.000000" preserveAspectRatio="xMidYMid meet">

<g transform="translate(0.000000,360.000000) scale(0.100000,-0.100000)" fill="#000000" stroke="none">
<path d="M2210 3122 c-74 -36 -208 -194 -304 -357 -76 -132 -146 -335 -146
-429 0 -65 64 -125 273 -255 64 -40 117 -75 117 -77 0 -16 -305 137 -387 195
-82 58 -88 70 -81 171 l5 69 -147 -74 c-284 -142 -501 -275 -580 -355 -147
-148 -293 -482 -324 -745 -6 -48 -5 -47 29 39 53 133 139 292 206 382 32 43
64 81 69 82 7 3 9 -10 5 -35 -3 -21 -10 -99 -15 -173 -5 -74 -26 -337 -45
-585 -19 -247 -35 -465 -35 -482 l0 -33 148 0 147 0 19 58 c23 70 86 197 132
267 l35 52 102 16 c56 9 256 39 444 67 189 28 427 66 530 84 104 18 191 32
195 30 11 -7 160 -261 248 -421 l83 -153 143 0 c118 0 144 3 144 14 0 54 -173
632 -272 910 -70 195 -70 184 20 284 l48 53 103 -56 c57 -31 112 -58 123 -60
22 -5 336 12 388 21 l35 5 -25 -22 c-36 -31 -116 -66 -199 -87 l-71 -17 66
-65 c138 -135 215 -297 255 -533 22 -130 -4 -177 -97 -177 -22 0 -63 7 -90 15
-27 8 -52 15 -56 15 -4 0 -15 -25 -25 -56 -20 -65 -22 -62 77 -96 134 -46 284
-21 331 56 66 107 58 248 -46 836 -96 537 -145 765 -200 922 -25 71 -76 140
-254 339 -117 131 -130 139 -220 139 -52 0 -116 -10 -202 -31 l-126 -31 -174
115 c-175 116 -306 187 -344 187 -11 0 -36 -8 -55 -18z"></path>
<path d="M2340 914 c-102 -18 -188 -33 -192 -33 -3 -1 -9 -29 -13 -63 -7 -71
-42 -299 -51 -335 l-6 -23 145 0 145 0 52 128 c42 101 130 345 130 359 0 5
-13 3 -210 -33z"></path>
<path d="M1570 798 c-74 -11 -136 -21 -137 -22 -2 -2 26 -59 60 -127 35 -68
69 -139 75 -156 l11 -33 125 0 c70 0 126 2 126 4 0 5 -58 291 -67 334 -6 27
-10 27 -193 0z"></path>
</g>
</svg>
